<?xml version="1.0" encoding="UTF-8" standalone="no"?>
<!DOCTYPE svg PUBLIC "-//W3C//DTD SVG 1.1//EN"
 "http://www.w3.org/Graphics/SVG/1.1/DTD/svg11.dtd">
<!-- Generated by graphviz version 14.1.5 (20260411.2331)
 -->
<!-- Title: change&#45;email Pages: 1 -->
<svg width="755pt" height="912pt"
 viewBox="0.00 0.00 755.00 912.00" xmlns="http://www.w3.org/2000/svg" xmlns:xlink="http://www.w3.org/1999/xlink">
<g id="graph0" class="graph" transform="scale(1 1) rotate(0) translate(28.8 883.6)">
<title>change&#45;email</title>
<polygon fill="white" stroke="none" points="-28.8,28.8 -28.8,-883.6 725.89,-883.6 725.89,28.8 -28.8,28.8"/>
<text xml:space="preserve" text-anchor="middle" x="348.55" y="-837.5" font-family="Helvetica,sans-Serif" font-size="14.00">Change&#45;Email Workflow</text>
<!-- ua_active -->
<g id="node1" class="node">
<title>ua_active</title>
<polygon fill="#557755" stroke="#2d5a2d" stroke-width="3" points="449.09,-831.8 289.68,-831.8 248.67,-766.64 408.09,-766.64 449.09,-831.8"/>
<text xml:space="preserve" text-anchor="middle" x="348.88" y="-800.97" font-family="Helvetica,sans-Serif" font-size="10.00" fill="white">UserAccount</text>
<text xml:space="preserve" text-anchor="middle" x="348.88" y="-789.72" font-family="Helvetica,sans-Serif" font-size="10.00" fill="white">Registered(email)</text>
</g>
<!-- cmd_change -->
<g id="node2" class="node">
<title>cmd_change</title>
<polygon fill="#6699cc" stroke="#336699" stroke-width="2" points="432.54,-719.64 390.71,-737.64 307.05,-737.64 265.22,-719.64 307.05,-701.64 390.71,-701.64 432.54,-719.64"/>
<text xml:space="preserve" text-anchor="middle" x="348.88" y="-715.76" font-family="Helvetica,sans-Serif" font-size="10.00" fill="#1a3350">ChangeEmailCommand</text>
</g>
<!-- ua_active&#45;&gt;cmd_change -->
<g id="edge1" class="edge">
<title>ua_active&#45;&gt;cmd_change</title>
<path fill="none" stroke="#336699" stroke-width="1.5" d="M348.88,-765.32C348.88,-759.54 348.88,-753.58 348.88,-747.97"/>
<polygon fill="#336699" stroke="#336699" stroke-width="1.5" points="348.88,-740.19 352.48,-748.19 349.13,-742.37 349.13,-748.19 348.88,-748.19 348.63,-748.19 348.63,-742.37 345.28,-748.19 348.88,-740.19"/>
</g>
<!-- evt_change_init -->
<g id="node3" class="node">
<title>evt_change_init</title>
<polygon fill="#cc8844" stroke="#996633" stroke-width="2" points="442.93,-654.64 395.91,-672.64 301.86,-672.64 254.83,-654.64 301.86,-636.64 395.91,-636.64 442.93,-654.64"/>
<text xml:space="preserve" text-anchor="middle" x="348.88" y="-650.76" font-family="Helvetica,sans-Serif" font-size="10.00" fill="#4d2e0f">EmailChangeInitiatedEvent</text>
</g>
<!-- cmd_change&#45;&gt;evt_change_init -->
<g id="edge2" class="edge">
<title>cmd_change&#45;&gt;evt_change_init</title>
<path fill="none" stroke="#996633" stroke-width="1.5" d="M348.88,-700.76C348.88,-695.26 348.88,-689.07 348.88,-683.08"/>
<polygon fill="#996633" stroke="#996633" stroke-width="1.5" points="348.88,-675.18 352.48,-683.18 349.13,-677.35 349.13,-683.18 348.88,-683.18 348.63,-683.18 348.63,-677.35 345.28,-683.18 348.88,-675.18"/>
</g>
<!-- ua_changing -->
<g id="node4" class="node">
<title>ua_changing</title>
<polygon fill="#557755" stroke="#2d5a2d" stroke-width="3" points="519.08,-607.64 248.34,-607.64 178.69,-542.48 449.43,-542.48 519.08,-607.64"/>
<text xml:space="preserve" text-anchor="middle" x="348.88" y="-576.81" font-family="Helvetica,sans-Serif" font-size="10.00" fill="white">UserAccount</text>
<text xml:space="preserve" text-anchor="middle" x="348.88" y="-565.56" font-family="Helvetica,sans-Serif" font-size="10.00" fill="white">ChangingEmail(email, newEmail)</text>
</g>
<!-- evt_change_init&#45;&gt;ua_changing -->
<g id="edge3" class="edge">
<title>evt_change_init&#45;&gt;ua_changing</title>
<path fill="none" stroke="#2d5a2d" stroke-width="1.5" stroke-dasharray="5,2" d="M348.88,-635.65C348.88,-630.17 348.88,-623.91 348.88,-617.55"/>
<polygon fill="#2d5a2d" stroke="#2d5a2d" stroke-width="1.5" points="348.88,-610.7 352.03,-617.7 349.13,-612.38 349.13,-617.7 348.88,-617.7 348.63,-617.7 348.63,-612.38 345.73,-617.7 348.88,-610.7"/>
</g>
<!-- cmd_reserve -->
<g id="node5" class="node">
<title>cmd_reserve</title>
<polygon fill="#6699cc" stroke="#336699" stroke-width="2" points="442.93,-495.48 395.91,-513.48 301.86,-513.48 254.83,-495.48 301.86,-477.48 395.91,-477.48 442.93,-495.48"/>
<text xml:space="preserve" text-anchor="middle" x="348.88" y="-491.6" font-family="Helvetica,sans-Serif" font-size="10.00" fill="#1a3350">ReserveEmailAddressCmd</text>
</g>
<!-- ua_changing&#45;&gt;cmd_reserve -->
<g id="edge4" class="edge">
<title>ua_changing&#45;&gt;cmd_reserve</title>
<path fill="none" stroke="#336699" stroke-width="1.5" d="M348.88,-541.16C348.88,-535.38 348.88,-529.42 348.88,-523.81"/>
<polygon fill="#336699" stroke="#336699" stroke-width="1.5" points="348.88,-516.03 352.48,-524.03 349.13,-518.21 349.13,-524.03 348.88,-524.03 348.63,-524.03 348.63,-518.21 345.28,-524.03 348.88,-516.03"/>
</g>
<!-- evt_reserved -->
<g id="node6" class="node">
<title>evt_reserved</title>
<polygon fill="#cc8844" stroke="#996633" stroke-width="2" points="340.69,-430.48 290.28,-448.48 189.48,-448.48 139.08,-430.48 189.48,-412.48 290.28,-412.48 340.69,-430.48"/>
<text xml:space="preserve" text-anchor="middle" x="239.88" y="-426.6" font-family="Helvetica,sans-Serif" font-size="10.00" fill="#4d2e0f">EmailAddressReservedEvent</text>
</g>
<!-- cmd_reserve&#45;&gt;evt_reserved -->
<g id="edge5" class="edge">
<title>cmd_reserve&#45;&gt;evt_reserved</title>
<path fill="none" stroke="#996633" stroke-width="1.5" d="M317.94,-476.6C305.86,-469.61 291.86,-461.52 279.09,-454.14"/>
<polygon fill="#996633" stroke="#996633" stroke-width="1.5" points="272.49,-450.32 281.21,-451.21 274.49,-451.19 279.54,-454.11 279.41,-454.33 279.29,-454.54 274.24,-451.63 277.61,-457.44 272.49,-450.32"/>
</g>
<!-- evt_denied -->
<g id="node13" class="node">
<title>evt_denied</title>
<polygon fill="#cc8844" stroke="#996633" stroke-width="2" points="568.89,-430.48 522.39,-448.48 429.38,-448.48 382.87,-430.48 429.38,-412.48 522.39,-412.48 568.89,-430.48"/>
<text xml:space="preserve" text-anchor="middle" x="475.88" y="-426.6" font-family="Helvetica,sans-Serif" font-size="10.00" fill="#4d2e0f">EmailAddressDeniedEvent</text>
</g>
<!-- cmd_reserve&#45;&gt;evt_denied -->
<g id="edge12" class="edge">
<title>cmd_reserve&#45;&gt;evt_denied</title>
<path fill="none" stroke="#336699" stroke-width="1.5" d="M384.94,-476.6C399.28,-469.48 415.94,-461.22 431.05,-453.72"/>
<polygon fill="#336699" stroke="#336699" stroke-width="1.5" points="438.1,-450.22 432.53,-457 436.27,-451.41 431.05,-454 430.93,-453.78 430.82,-453.55 436.04,-450.96 429.34,-450.55 438.1,-450.22"/>
<text xml:space="preserve" text-anchor="middle" x="395.24" y="-464.32" font-family="Helvetica,sans-Serif" font-size="8.00" fill="#888888">Reserved</text>
</g>
<!-- ea_reserved -->
<g id="node7" class="node">
<title>ea_reserved</title>
<polygon fill="#557755" stroke="#2d5a2d" stroke-width="3" points="371.41,-383.48 108.09,-383.48 40.35,-318.32 303.67,-318.32 371.41,-383.48"/>
<text xml:space="preserve" text-anchor="middle" x="205.88" y="-352.65" font-family="Helvetica,sans-Serif" font-size="10.00" fill="white">EmailAddress</text>
<text xml:space="preserve" text-anchor="middle" x="205.88" y="-341.4" font-family="Helvetica,sans-Serif" font-size="10.00" fill="white">Reserved(newEmail, username)</text>
</g>
<!-- evt_reserved&#45;&gt;ea_reserved -->
<g id="edge6" class="edge">
<title>evt_reserved&#45;&gt;ea_reserved</title>
<path fill="none" stroke="#2d5a2d" stroke-width="1.5" stroke-dasharray="5,2" d="M232,-411.49C229.49,-405.76 226.6,-399.17 223.68,-392.52"/>
<polygon fill="#2d5a2d" stroke="#2d5a2d" stroke-width="1.5" points="221,-386.39 226.69,-391.54 221.9,-387.82 224.04,-392.7 223.81,-392.8 223.58,-392.9 221.44,-388.02 220.92,-394.07 221,-386.39"/>
</g>
<!-- evt_completed -->
<g id="node8" class="node">
<title>evt_completed</title>
<polygon fill="#cc8844" stroke="#996633" stroke-width="2" points="205.76,-256.74 154.32,-274.74 51.44,-274.74 0,-256.74 51.44,-238.74 154.32,-238.74 205.76,-256.74"/>
<text xml:space="preserve" text-anchor="middle" x="102.88" y="-252.87" font-family="Helvetica,sans-Serif" font-size="10.00" fill="#4d2e0f">EmailChangeCompletedEvent</text>
</g>
<!-- ea_reserved&#45;&gt;evt_completed -->
<g id="edge7" class="edge">
<title>ea_reserved&#45;&gt;evt_completed</title>
<path fill="none" stroke="#996633" stroke-width="1.5" d="M168.99,-316.89C156.08,-305.34 141.84,-292.6 129.89,-281.91"/>
<polygon fill="#996633" stroke="#996633" stroke-width="1.5" points="124.14,-276.76 132.51,-279.41 125.93,-278.03 130.27,-281.91 130.1,-282.1 129.94,-282.28 125.6,-278.4 127.7,-284.78 124.14,-276.76"/>
</g>
<!-- ua_registered_new -->
<g id="node9" class="node">
<title>ua_registered_new</title>
<polygon fill="#557755" stroke="#2d5a2d" stroke-width="3" points="471.31,-289.32 279.74,-289.32 230.45,-224.16 422.03,-224.16 471.31,-289.32"/>
<text xml:space="preserve" text-anchor="middle" x="350.88" y="-258.49" font-family="Helvetica,sans-Serif" font-size="10.00" fill="white">UserAccount</text>
<text xml:space="preserve" text-anchor="middle" x="350.88" y="-247.24" font-family="Helvetica,sans-Serif" font-size="10.00" fill="white">Registered(newEmail)</text>
</g>
<!-- evt_completed&#45;&gt;ua_registered_new -->
<g id="edge8" class="edge">
<title>evt_completed&#45;&gt;ua_registered_new</title>
<path fill="none" stroke="#2d5a2d" stroke-width="1.5" stroke-dasharray="5,2" d="M208.48,-256.74C220.49,-256.74 232.5,-256.74 244.51,-256.74"/>
<polygon fill="#2d5a2d" stroke="#2d5a2d" stroke-width="1.5" points="251.43,-256.74 244.43,-259.89 249.76,-256.99 244.43,-256.99 244.43,-256.74 244.43,-256.49 249.76,-256.49 244.43,-253.59 251.43,-256.74"/>
</g>
<!-- cmd_release -->
<g id="node10" class="node">
<title>cmd_release</title>
<polygon fill="#6699cc" stroke="#336699" stroke-width="2" points="444.41,-177.16 397.65,-195.16 304.12,-195.16 257.35,-177.16 304.12,-159.16 397.65,-159.16 444.41,-177.16"/>
<text xml:space="preserve" text-anchor="middle" x="350.88" y="-173.28" font-family="Helvetica,sans-Serif" font-size="10.00" fill="#1a3350">ReleaseEmailAddressCmd</text>
</g>
<!-- ua_registered_new&#45;&gt;cmd_release -->
<g id="edge9" class="edge">
<title>ua_registered_new&#45;&gt;cmd_release</title>
<path fill="none" stroke="#336699" stroke-width="1.5" d="M350.88,-222.84C350.88,-217.06 350.88,-211.1 350.88,-205.49"/>
<polygon fill="#336699" stroke="#336699" stroke-width="1.5" points="350.88,-197.71 354.48,-205.71 351.13,-199.89 351.13,-205.71 350.88,-205.71 350.63,-205.71 350.63,-199.89 347.28,-205.71 350.88,-197.71"/>
</g>
<!-- evt_released -->
<g id="node11" class="node">
<title>evt_released</title>
<polygon fill="#cc8844" stroke="#996633" stroke-width="2" points="451.17,-112.16 401.02,-130.16 300.74,-130.16 250.6,-112.16 300.74,-94.16 401.02,-94.16 451.17,-112.16"/>
<text xml:space="preserve" text-anchor="middle" x="350.88" y="-108.28" font-family="Helvetica,sans-Serif" font-size="10.00" fill="#4d2e0f">EmailAddressReleasedEvent</text>
</g>
<!-- cmd_release&#45;&gt;evt_released -->
<g id="edge10" class="edge">
<title>cmd_release&#45;&gt;evt_released</title>
<path fill="none" stroke="#996633" stroke-width="1.5" d="M350.88,-158.28C350.88,-152.78 350.88,-146.59 350.88,-140.6"/>
<polygon fill="#996633" stroke="#996633" stroke-width="1.5" points="350.88,-132.7 354.48,-140.7 351.13,-134.87 351.13,-140.7 350.88,-140.7 350.63,-140.7 350.63,-134.87 347.28,-140.7 350.88,-132.7"/>
</g>
<!-- ea_available -->
<g id="node12" class="node">
<title>ea_available</title>
<polygon fill="#557755" stroke="#2d5a2d" stroke-width="3" points="458.09,-65.16 287.54,-65.16 243.67,0 414.22,0 458.09,-65.16"/>
<text xml:space="preserve" text-anchor="middle" x="350.88" y="-34.33" font-family="Helvetica,sans-Serif" font-size="10.00" fill="white">EmailAddress</text>
<text xml:space="preserve" text-anchor="middle" x="350.88" y="-23.08" font-family="Helvetica,sans-Serif" font-size="10.00" fill="white">Available(oldEmail)</text>
</g>
<!-- evt_released&#45;&gt;ea_available -->
<g id="edge11" class="edge">
<title>evt_released&#45;&gt;ea_available</title>
<path fill="none" stroke="#2d5a2d" stroke-width="1.5" stroke-dasharray="5,2" d="M350.88,-93.17C350.88,-87.69 350.88,-81.43 350.88,-75.07"/>
<polygon fill="#2d5a2d" stroke="#2d5a2d" stroke-width="1.5" points="350.88,-68.22 354.03,-75.22 351.13,-69.9 351.13,-75.22 350.88,-75.22 350.63,-75.22 350.63,-69.9 347.73,-75.22 350.88,-68.22"/>
</g>
<!-- evt_reverted -->
<g id="node14" class="node">
<title>evt_reverted</title>
<polygon fill="#cc8844" stroke="#996633" stroke-width="2" points="642.57,-350.9 593.73,-368.9 496.04,-368.9 447.2,-350.9 496.04,-332.9 593.73,-332.9 642.57,-350.9"/>
<text xml:space="preserve" text-anchor="middle" x="544.88" y="-347.02" font-family="Helvetica,sans-Serif" font-size="10.00" fill="#4d2e0f">EmailChangeRevertedEvent</text>
</g>
<!-- evt_denied&#45;&gt;evt_reverted -->
<g id="edge13" class="edge">
<title>evt_denied&#45;&gt;evt_reverted</title>
<path fill="none" stroke="#996633" stroke-width="1.5" d="M491.89,-411.49C501.03,-401.21 512.64,-388.16 522.65,-376.89"/>
<polygon fill="#996633" stroke="#996633" stroke-width="1.5" points="527.75,-371.16 525.12,-379.53 526.49,-372.95 522.62,-377.31 522.43,-377.14 522.25,-376.97 526.12,-372.62 519.74,-374.75 527.75,-371.16"/>
</g>
<!-- ua_reverted -->
<g id="node15" class="node">
<title>ua_reverted</title>
<polygon fill="#557755" stroke="#2d5a2d" stroke-width="3" points="697.09,-289.32 537.68,-289.32 496.67,-224.16 656.09,-224.16 697.09,-289.32"/>
<text xml:space="preserve" text-anchor="middle" x="596.88" y="-258.49" font-family="Helvetica,sans-Serif" font-size="10.00" fill="white">UserAccount</text>
<text xml:space="preserve" text-anchor="middle" x="596.88" y="-247.24" font-family="Helvetica,sans-Serif" font-size="10.00" fill="white">Registered(email)</text>
</g>
<!-- evt_reverted&#45;&gt;ua_reverted -->
<g id="edge14" class="edge">
<title>evt_reverted&#45;&gt;ua_reverted</title>
<path fill="none" stroke="#2d5a2d" stroke-width="1.5" stroke-dasharray="5,2" d="M554.91,-332.13C560.33,-322.52 567.27,-310.23 573.93,-298.41"/>
<polygon fill="#2d5a2d" stroke="#2d5a2d" stroke-width="1.5" points="577.36,-292.34 576.66,-299.99 576.75,-293.92 574.14,-298.56 573.92,-298.44 573.7,-298.32 576.32,-293.68 571.17,-296.89 577.36,-292.34"/>
</g>
</g>
</svg>
